<?xml version="1.0" standalone="no"?>
<!DOCTYPE svg PUBLIC "-//W3C//DTD SVG 20010904//EN"
 "http://www.w3.org/TR/2001/REC-SVG-20010904/DTD/svg10.dtd">
<svg version="1.0" xmlns="http://www.w3.org/2000/svg"
 width="128.000000pt" height="128.000000pt" viewBox="0 0 128.000000 128.000000"
 preserveAspectRatio="xMidYMid meet">

<g transform="translate(0.000000,128.000000) scale(0.100000,-0.100000)"
fill="#ADD9F4" stroke="none">
<path d="M500 1264 c-234 -50 -436 -254 -485 -489 -60 -285 79 -575 335 -703
85 -42 191 -71 263 -72 l37 0 0 250 0 250 -70 0 -70 0 0 80 0 80 70 0 70 0 0
71 c0 101 16 155 60 199 51 51 145 72 239 54 l31 -6 0 -69 0 -69 -58 0 c-88 0
-102 -14 -102 -106 l0 -74 76 0 77 0 -7 -61 c-3 -34 -6 -70 -6 -80 0 -17 -9
-19 -70 -19 l-70 0 0 -235 c0 -193 2 -235 14 -235 7 0 51 19 97 42 207 103
349 334 349 568 0 236 -142 466 -350 569 -139 68 -284 87 -430 55z"/>
</g>
</svg>
