<?xml version="1.0" standalone="no"?>
<!DOCTYPE svg PUBLIC "-//W3C//DTD SVG 20010904//EN"
 "http://www.w3.org/TR/2001/REC-SVG-20010904/DTD/svg10.dtd">
<svg version="1.0" xmlns="http://www.w3.org/2000/svg"
 width="128.000000pt" height="128.000000pt" viewBox="0 0 128.000000 128.000000"
 preserveAspectRatio="xMidYMid meet">

<g transform="translate(0.000000,128.000000) scale(0.100000,-0.100000)"
fill="#ADD9F4" stroke="none">
<path d="M480 1245 c-217 -60 -388 -233 -445 -450 -19 -76 -19 -233 0 -310 49
-191 191 -351 380 -427 77 -32 85 -33 225 -33 140 0 148 1 225 32 161 65 293
197 357 358 31 77 33 86 33 220 0 121 -3 149 -23 207 -26 73 -80 164 -137 227
-51 56 -170 134 -246 161 -84 30 -285 38 -369 15z m391 -235 c58 -16 101 -51
128 -105 24 -46 26 -60 29 -225 6 -262 -17 -342 -111 -392 -39 -21 -56 -23
-253 -26 -129 -2 -227 1 -251 7 -61 17 -104 51 -132 106 -24 46 -26 60 -29
225 -6 271 17 347 121 396 50 23 61 24 257 24 113 0 221 -5 241 -10z"/>
<path d="M415 936 c-76 -34 -95 -93 -95 -296 0 -205 19 -263 97 -296 46 -20
400 -20 446 0 78 33 97 91 97 296 0 205 -19 263 -97 296 -45 19 -405 19 -448
0z m463 -87 c4 -31 -20 -53 -47 -44 -45 14 -30 79 17 73 21 -2 28 -9 30 -29z
m-150 -28 c72 -37 112 -102 112 -181 0 -113 -87 -200 -200 -200 -214 0 -277
282 -85 383 42 23 127 21 173 -2z"/>
<path d="M573 750 c-85 -51 -81 -179 6 -225 61 -31 136 -11 171 48 70 114 -63
247 -177 177z"/>
</g>
</svg>
