<?xml version="1.0" standalone="no"?>
<!DOCTYPE svg PUBLIC "-//W3C//DTD SVG 20010904//EN"
 "http://www.w3.org/TR/2001/REC-SVG-20010904/DTD/svg10.dtd">
<svg version="1.0" xmlns="http://www.w3.org/2000/svg"
 width="128.000000pt" height="128.000000pt" viewBox="0 0 128.000000 128.000000"
 preserveAspectRatio="xMidYMid meet">

<g transform="translate(0.000000,128.000000) scale(0.100000,-0.100000)"
fill="#ADD9F4" stroke="none">
<path d="M500 1265 c-176 -38 -351 -175 -429 -337 -68 -141 -87 -278 -56 -422
72 -341 416 -564 759 -491 289 61 506 329 506 625 0 236 -142 466 -350 569
-139 68 -284 87 -430 56z m-34 -329 c57 -48 22 -146 -52 -146 -46 0 -63 9 -80
42 -20 38 -10 82 23 108 34 27 76 25 109 -4z m446 -225 c36 -40 49 -113 46
-262 l-3 -124 -65 0 -65 0 -5 138 c-5 131 -6 140 -29 158 -31 25 -54 24 -88
-5 -28 -24 -28 -25 -31 -161 l-4 -136 -61 3 -62 3 0 210 0 210 60 0 c55 0 60
-2 63 -23 l4 -24 22 21 c50 47 171 43 218 -8z m-437 -176 l0 -210 -65 0 -65 0
-3 200 c-1 110 0 205 3 213 3 9 22 12 67 10 l63 -3 0 -210z"/>
</g>
</svg>
