<?xml version="1.0" standalone="no"?>
<!DOCTYPE svg PUBLIC "-//W3C//DTD SVG 20010904//EN"
 "http://www.w3.org/TR/2001/REC-SVG-20010904/DTD/svg10.dtd">
<svg version="1.0" xmlns="http://www.w3.org/2000/svg"
 width="128.000000pt" height="128.000000pt" viewBox="0 0 128.000000 128.000000"
 preserveAspectRatio="xMidYMid meet">

<g transform="translate(0.000000,128.000000) scale(0.100000,-0.100000)"
fill="#ADD9F4" stroke="none">
<path d="M500 1184 c-195 -51 -355 -212 -405 -409 -75 -294 112 -604 410 -680
294 -75 604 112 680 410 75 295 -111 603 -410 680 -74 19 -202 18 -275 -1z
m265 -278 c17 -50 51 -84 101 -101 38 -13 39 -15 42 -63 l3 -50 -41 9 c-23 5
-58 16 -77 24 -20 8 -37 15 -39 15 -2 0 -4 -62 -4 -138 0 -135 -1 -139 -29
-184 -77 -122 -267 -114 -332 14 -32 62 -24 154 17 204 35 44 82 69 142 78
l42 6 0 -49 0 -49 -44 -11 c-53 -13 -76 -41 -76 -94 0 -79 97 -118 154 -61
l26 27 0 234 0 234 51 -3 c49 -3 51 -4 64 -42z"/>
</g>
</svg>
