<?xml version="1.0" standalone="no"?>
<!DOCTYPE svg PUBLIC "-//W3C//DTD SVG 20010904//EN"
 "http://www.w3.org/TR/2001/REC-SVG-20010904/DTD/svg10.dtd">
<svg version="1.0" xmlns="http://www.w3.org/2000/svg"
 width="128.000000pt" height="128.000000pt" viewBox="0 0 128.000000 128.000000"
 preserveAspectRatio="xMidYMid meet">

<g transform="translate(0.000000,128.000000) scale(0.100000,-0.100000)"
fill="#ADD9F4" stroke="none">
<path d="M500 1265 c-176 -38 -351 -175 -429 -337 -68 -141 -87 -278 -56 -422
72 -341 416 -564 759 -491 289 61 506 329 506 625 0 236 -142 466 -350 569
-139 68 -284 87 -430 56z m327 -381 c29 -18 47 -18 83 1 35 18 40 4 14 -33
-15 -22 -15 -23 13 -16 26 7 27 6 13 -12 -8 -10 -22 -28 -32 -40 -10 -12 -23
-49 -29 -84 -35 -216 -224 -356 -431 -320 -68 13 -131 39 -130 55 1 6 23 13
49 16 60 7 106 26 98 39 -3 5 -12 10 -20 10 -14 0 -75 65 -75 80 0 6 5 10 11
10 6 0 -3 16 -20 35 -17 20 -31 42 -31 50 0 7 -3 21 -7 31 -5 14 -2 16 15 12
21 -6 21 -5 7 23 -17 31 -20 106 -6 128 8 12 19 7 56 -28 52 -48 110 -77 173
-87 41 -6 42 -6 42 20 0 101 121 165 207 110z"/>
</g>
</svg>
